<svg width="328" height="23" viewBox="0 0 328 23" fill="none" xmlns="http://www.w3.org/2000/svg">
<g clip-path="url(#clip0_802_655)">
<path fill-rule="evenodd" clip-rule="evenodd" d="M149.405 13.4498C148.305 12.8698 147.155 12.3798 145.995 11.9398C145.055 11.5898 144.065 11.3698 143.075 11.0898C143.185 10.8798 143.225 10.7098 143.325 10.6598C143.785 10.4398 144.095 10.1098 144.035 9.56983C143.965 8.93983 143.485 8.62983 142.965 8.44983C142.525 8.29983 142.045 8.19983 141.595 8.21983C140.275 8.27983 138.915 8.25983 137.645 8.54983C133.685 9.44983 129.755 10.4598 125.815 11.4498C123.995 11.8998 122.205 12.4498 120.375 12.8298C116.465 13.6498 112.625 14.6798 108.865 15.9998C106.585 16.7998 104.305 17.6198 102.025 18.4298C100.145 19.0998 98.205 19.2298 96.245 18.9998C93.435 18.6598 91.235 17.3198 89.835 14.8198C89.085 13.4698 89.345 12.6298 90.715 11.9698C92.355 11.1798 94.125 10.7898 95.925 10.7698C97.345 10.7598 98.715 11.1098 99.755 12.3898C99.725 12.8798 99.635 13.4198 99.655 13.9498C99.685 14.7898 100.505 15.3398 101.315 15.1198C102.225 14.8798 102.855 14.1798 102.875 13.2898C102.895 12.3198 102.675 11.4398 101.815 10.8198C100.975 10.2198 100.085 9.79983 99.065 9.57983C96.455 9.01983 93.935 9.44983 91.455 10.2598C90.355 10.6198 89.285 11.1098 88.195 11.5398C85.445 9.84983 82.725 9.03983 79.905 11.7098C79.205 11.2998 78.615 10.9198 77.995 10.5898C77.585 10.3698 77.145 10.1798 76.705 10.0698C75.855 9.86983 75.295 10.3398 75.295 11.1698C75.295 12.4298 75.915 13.4098 76.685 14.3098C78.015 15.8898 79.675 17.0698 81.525 17.9498C83.635 18.9498 85.785 19.9298 87.995 20.6898C89.755 21.2898 91.615 21.7598 93.465 21.8998C97.335 22.1998 101.095 21.5498 104.645 19.8998C106.555 19.0098 108.385 17.9198 110.355 17.1898C118.055 14.3198 126.005 12.8598 134.245 13.4598C136.105 13.5998 137.935 14.0698 139.755 14.5098C140.575 14.7098 141.335 15.1698 142.085 15.5798C142.725 15.9298 143.105 16.5298 143.275 17.2498C143.445 17.9698 143.215 18.4698 142.585 18.8098C141.695 19.2898 140.795 19.3398 139.885 18.9298C139.395 18.7098 138.935 18.4298 138.415 18.1598C138.155 18.4298 137.855 18.6198 137.765 18.8798C137.185 20.5298 138.125 22.3798 139.745 22.7898C140.865 23.0698 141.925 22.9198 142.865 22.2198C143.985 21.3898 144.665 20.2798 144.855 18.8898C144.945 18.2098 144.995 17.5198 145.075 16.7098C145.625 16.8598 146.055 17.0198 146.505 17.0798C147.195 17.1698 147.905 17.2798 148.585 17.1998C149.485 17.0798 150.185 16.5498 150.425 15.6198C150.665 14.6498 150.215 13.8898 149.405 13.4598V13.4498ZM86.665 18.7998C84.345 17.7798 82.855 15.9298 81.625 13.8198C81.435 13.4998 81.375 13.0798 81.315 12.7098C81.195 12.0198 81.515 11.4798 82.185 11.2598C83.255 10.9098 84.335 10.9098 85.385 11.2898C85.955 11.4898 86.475 11.8398 87.035 12.1298C86.975 12.4498 86.985 12.6898 86.885 12.8698C85.845 14.5898 86.295 16.1498 87.365 17.6398C87.715 18.1298 88.115 18.5898 88.705 19.3198C87.785 19.2198 87.215 19.0498 86.665 18.8098V18.7998ZM148.685 15.8998C148.195 16.0698 147.605 16.2098 147.135 16.0798C146.245 15.8298 145.355 15.4798 144.575 14.9898C142.305 13.5798 139.855 12.6698 137.275 12.0598C136.985 11.9898 136.695 11.9198 136.405 11.8498C139.835 11.7098 143.195 12.0698 146.405 13.2898C147.265 13.6098 148.075 14.0898 148.865 14.5798C149.345 14.8798 149.225 15.7298 148.685 15.9098V15.8998Z" fill="#CCCCCC"/>
<path fill-rule="evenodd" clip-rule="evenodd" d="M106.915 14.5002C108.145 14.2802 109.365 14.0002 110.555 13.6302C113.385 12.7402 116.195 11.7902 119.015 10.8702C123.395 9.4402 127.825 8.1802 132.405 7.5402C133.795 7.3402 135.195 7.2302 136.585 7.0402C137.415 6.9202 138.295 6.8602 138.975 6.1002C137.995 5.6102 137.005 5.6302 135.985 5.7102C133.095 5.9302 130.255 6.4102 127.435 7.0702C122.335 8.2602 117.425 10.0602 112.465 11.7402C110.325 12.4602 108.225 13.3402 105.965 13.6402C105.765 13.6702 105.585 13.8502 105.395 13.9502C105.395 14.0902 105.385 14.2302 105.375 14.3802C105.895 14.4302 106.435 14.5902 106.925 14.5002H106.915Z" fill="#CCCCCC"/>
<path fill-rule="evenodd" clip-rule="evenodd" d="M251.325 10.0799C250.875 10.1999 250.445 10.3899 250.035 10.5999C249.415 10.9299 248.825 11.3099 248.125 11.7199C245.305 9.0499 242.585 9.85989 239.835 11.5499C238.745 11.1199 237.685 10.6299 236.575 10.2699C234.095 9.4599 231.585 9.0299 228.965 9.5899C227.945 9.8099 227.055 10.2299 226.215 10.8299C225.355 11.4499 225.135 12.3299 225.155 13.2999C225.175 14.1899 225.815 14.8899 226.715 15.1299C227.525 15.3399 228.335 14.7899 228.375 13.9599C228.395 13.4299 228.315 12.8899 228.275 12.3999C229.315 11.1199 230.675 10.7699 232.105 10.7799C233.915 10.7999 235.675 11.1899 237.315 11.9799C238.675 12.6399 238.945 13.4799 238.195 14.8299C236.795 17.3399 234.595 18.6799 231.785 19.0099C229.825 19.2499 227.885 19.1199 226.005 18.4399C223.725 17.6299 221.445 16.8099 219.165 16.0099C215.405 14.6899 211.555 13.6599 207.655 12.8399C205.825 12.4599 204.025 11.9099 202.215 11.4599C198.275 10.4799 194.345 9.4599 190.385 8.5599C189.105 8.2699 187.755 8.28989 186.435 8.22989C185.975 8.20989 185.495 8.31989 185.055 8.45989C184.525 8.63989 184.055 8.94989 183.985 9.57989C183.925 10.1199 184.235 10.4399 184.695 10.6699C184.795 10.7199 184.825 10.8899 184.945 11.0999C183.955 11.3799 182.965 11.5999 182.025 11.9499C180.865 12.3899 179.705 12.8799 178.615 13.4599C177.805 13.8899 177.355 14.6599 177.595 15.6199C177.825 16.5499 178.535 17.0899 179.435 17.1999C180.115 17.2899 180.825 17.1699 181.515 17.0799C181.965 17.0199 182.395 16.8599 182.945 16.7099C183.025 17.5199 183.075 18.2099 183.175 18.8899C183.365 20.2799 184.045 21.3899 185.165 22.2199C186.105 22.9199 187.175 23.0699 188.285 22.7899C189.905 22.3799 190.845 20.5299 190.265 18.8799C190.175 18.6199 189.865 18.4299 189.615 18.1599C189.095 18.4399 188.635 18.7099 188.145 18.9299C187.235 19.3399 186.325 19.2899 185.445 18.8099C184.815 18.4699 184.595 17.9699 184.755 17.2499C184.925 16.5299 185.315 15.9299 185.945 15.5799C186.695 15.1599 187.455 14.6999 188.275 14.5099C190.095 14.0699 191.925 13.5899 193.785 13.4599C202.025 12.8499 209.975 14.3099 217.675 17.1899C219.645 17.9199 221.475 19.0099 223.385 19.8999C226.935 21.5499 230.695 22.1999 234.565 21.8999C236.415 21.7599 238.275 21.2899 240.035 20.6899C242.245 19.9299 244.385 18.9499 246.505 17.9499C248.355 17.0799 250.015 15.8899 251.345 14.3099C252.115 13.4099 252.745 12.4299 252.735 11.1699C252.735 10.3399 252.175 9.85989 251.355 10.0799H251.325ZM190.725 12.0599C188.145 12.6799 185.695 13.5899 183.425 14.9899C182.645 15.4699 181.755 15.8299 180.865 16.0799C180.395 16.2099 179.805 16.0699 179.315 15.8999C178.775 15.7199 178.655 14.8599 179.135 14.5699C179.915 14.0799 180.735 13.5999 181.595 13.2799C184.805 12.0699 188.165 11.7099 191.595 11.8399C191.305 11.9099 191.015 11.9899 190.725 12.0499V12.0599ZM246.695 12.7099C246.625 13.0899 246.575 13.4999 246.385 13.8199C245.155 15.9299 243.655 17.7799 241.345 18.7999C240.795 19.0399 240.225 19.2099 239.305 19.3099C239.895 18.5699 240.295 18.1199 240.645 17.6299C241.715 16.1399 242.165 14.5799 241.125 12.8599C241.015 12.6899 241.035 12.4399 240.975 12.1199C241.535 11.8299 242.055 11.4899 242.625 11.2799C243.675 10.9099 244.765 10.8999 245.825 11.2499C246.495 11.4699 246.815 12.0099 246.695 12.6999V12.7099Z" fill="#CCCCCC"/>
<path fill-rule="evenodd" clip-rule="evenodd" d="M178.545 9.62023C178.845 9.29023 179.065 8.83023 179.195 8.39023C179.595 7.09023 178.965 6.17023 177.605 6.21023C176.685 6.23023 175.765 6.51023 174.855 6.69023C174.415 6.78023 173.985 6.93023 173.255 7.13023C173.395 6.66023 174.445 4.68023 172.915 4.30023C171.395 3.92023 170.025 5.64023 169.145 6.14023C168.755 6.36023 168.405 6.64023 167.855 7.02023C167.855 6.99023 167.835 6.96023 167.835 6.93023C167.805 4.00023 165.715 -0.00976562 164.015 -0.00976562C162.315 -0.00976562 160.215 4.00023 160.195 6.93023C160.195 6.96023 160.185 6.99023 160.175 7.02023C159.625 6.64023 159.265 6.36023 158.885 6.14023C158.005 5.64023 156.635 3.92023 155.115 4.30023C153.595 4.68023 154.635 6.66023 154.775 7.13023C154.045 6.93023 153.615 6.78023 153.175 6.69023C152.265 6.50023 151.345 6.23023 150.425 6.21023C149.065 6.18023 148.435 7.09023 148.835 8.39023C148.965 8.83023 149.185 9.28023 149.485 9.62023C150.115 10.3102 150.785 10.9802 151.525 11.5402C153.785 13.2602 156.295 14.5102 158.995 15.3902C160.575 15.9002 164.035 17.7002 164.035 17.7002C164.035 17.7002 167.495 15.9002 169.075 15.3902C171.775 14.5202 174.285 13.2602 176.545 11.5402C177.285 10.9802 177.955 10.3102 178.585 9.62023H178.545ZM151.315 9.88023C150.665 9.34023 150.055 8.73024 149.905 7.88023C150.225 7.29023 150.705 7.34023 151.165 7.44023C155.195 8.27024 158.205 10.5402 160.285 14.1302C157.005 13.2902 153.935 12.0502 151.315 9.88023ZM164.585 15.7302C164.415 15.9702 164.195 16.2002 163.995 16.4402C163.795 16.2002 163.575 15.9702 163.405 15.7302C161.935 13.5902 161.215 11.2702 161.335 8.67023C161.435 6.54023 162.625 1.46023 163.995 1.46023C165.365 1.46023 166.555 6.55023 166.655 8.67023C166.775 11.2702 166.055 13.5902 164.585 15.7302ZM176.685 9.88023C174.065 12.0402 170.995 13.2802 167.715 14.1302C169.795 10.5402 172.795 8.27024 176.835 7.44023C177.305 7.34023 177.775 7.29023 178.095 7.88023C177.945 8.74023 177.335 9.34023 176.685 9.88023Z" fill="#CCCCCC"/>
<path fill-rule="evenodd" clip-rule="evenodd" d="M195.605 7.5402C200.185 8.1902 204.615 9.4402 208.995 10.8702C211.815 11.7902 214.625 12.7502 217.455 13.6302C218.645 14.0002 219.865 14.2802 221.095 14.5002C221.585 14.5902 222.125 14.4302 222.645 14.3802C222.645 14.2402 222.635 14.1002 222.625 13.9502C222.435 13.8402 222.255 13.6702 222.055 13.6402C219.785 13.3302 217.695 12.4602 215.555 11.7402C210.605 10.0702 205.695 8.2702 200.585 7.0702C197.765 6.4102 194.925 5.9302 192.035 5.7102C191.015 5.6302 190.025 5.6102 189.045 6.1002C189.725 6.8602 190.595 6.9202 191.425 7.0402C192.815 7.2302 194.215 7.3502 195.605 7.5402Z" fill="#CCCCCC"/>
</g>
<defs>
<clipPath id="clip0_802_655">
<rect width="177.41" height="22.92" fill="white" transform="translate(75.295)"/>
</clipPath>
</defs>
</svg>
